<mxfile host="app.diagrams.net" modified="2024-02-05T20:57:01.812Z" agent="Mozilla/5.0 (Windows NT 10.0; Win64; x64; rv:109.0) Gecko/20100101 Firefox/115.0" version="23.1.0" etag="AuOMxy1y1Y0PlByVwmWB" type="github">
  <diagram name="Page-1" id="CJVXk8pPOTQAb8YFEEfS">
    <mxGraphModel>
      <root>
        <mxCell id="0" />
        <mxCell id="1" parent="0" />
      </root>
    </mxGraphModel>
  </diagram>
</mxfile>
